<?xml version="1.0" encoding="UTF-8"?>
<svg xmlns="http://www.w3.org/2000/svg" viewBox="0 0 512 512" width="512" height="512"><g id="Outline"><path d="M432,56V344H416V56a24.027,24.027,0,0,0-24-24H320V16h72A40.045,40.045,0,0,1,432,56ZM416,360h16v96a40.045,40.045,0,0,1-40,40H56a40.045,40.045,0,0,1-40-40V112H32V456a24.028,24.028,0,0,0,24,24H344a24.028,24.028,0,0,0,24-24V120H320a40.045,40.045,0,0,1-40-40V32H56A24.028,24.028,0,0,0,32,56V96H16V56A40.045,40.045,0,0,1,56,16H288a8,8,0,0,1,5.657,2.343l88,88A8,8,0,0,1,384,112V456a39.788,39.788,0,0,1-8.022,24H392a24.027,24.027,0,0,0,24-24ZM356.687,104,296,43.313V80a24.027,24.027,0,0,0,24,24ZM56,144H72V328H88V288a8,8,0,0,1,8-8h32a8,8,0,0,1,8,8v40h16V248a8,8,0,0,1,8-8h32a8,8,0,0,1,8,8v80h16V200a8,8,0,0,1,8-8h32a8,8,0,0,1,8,8V328h16V152a8,8,0,0,1,8-8h32a8,8,0,0,1,8,8v48H312V160H296V328h16V216h16V328h16v16H64a8,8,0,0,1-8-8ZM232,328h16V208H232Zm-64,0h16V256H168Zm-64,0h16V296H104Zm48-184H88v16h64ZM88,192h64V176H88ZM56,376H72V360H56Zm48,0V360H88v16Zm32,0V360H120v16Zm32,0V360H152v16Zm32,0V360H184v16Zm16-16v16h16V360Zm48,0H248v16h16Zm16,0v16h16V360Zm32,0v16h16V360ZM224,64H104V80H224ZM56,64V80H88V64Zm168,48V96H160v16ZM56,112h88V96H56Zm0,336h88V432H56Zm128,0V432H160v16ZM56,416H184V400H56Zm288-16H264v16h80ZM216,416h32V400H216Zm0,32H344V432H216ZM496,144V392a8.261,8.261,0,0,1-.845,3.578l-16,32a8,8,0,0,1-14.31,0l-16-32A7.927,7.927,0,0,1,448,392V144a24,24,0,0,1,48,0ZM475.056,400h-6.112L472,406.111ZM480,216H464V384h16Zm0-48H464v32h16Zm0-24a8,8,0,0,0-16,0v8h16Z"/></g></svg>
